<svg width="24" height="24" viewBox="0 0 24 24" fill="none" xmlns="http://www.w3.org/2000/svg">
  <path fill-rule="evenodd" clip-rule="evenodd" d="M21 12C21 16.9706 16.9706 21 12 21C7.02944 21 3 16.9706 3 12C3 7.02944 7.02944 3 12 3C16.9706 3 21 7.02944 21 12ZM24 12C24 18.6274 18.6274 24 12 24C5.37258 24 0 18.6274 0 12C0 5.37258 5.37258 0 12 0C18.6274 0 24 5.37258 24 12ZM8.44796 12.1897C8.11454 11.889 7.60674 11.8925 7.27753 12.1978C6.90399 12.5442 6.90809 13.1365 7.28641 13.4777L8.74826 14.7961C9.76332 15.7115 11.3061 15.7115 12.3212 14.7961L17.0596 10.5227C17.4444 10.1756 17.4444 9.57193 17.0596 9.22491C16.7272 8.92508 16.2219 8.92502 15.8894 9.22477L10.5236 14.0617L8.44796 12.1897Z" fill="#4A9CAB"/>
</svg>
